<svg width="35.139" height="35.137" viewBox="0 0 35.139 35.137" xmlns="http://www.w3.org/2000/svg"><path d="M21.711 35.137c-.418 0-.83-.123-1.182-.361l-2.96-2.007-2.959 2.007a2.118 2.118 0 0 1-1.73.289 2.103 2.103 0 0 1-1.351-1.113l-1.721-2.393-3.405-.568a2.11 2.11 0 0 1-2.256-2.254l.256-3.567-3.215-1.56a2.109 2.109 0 0 1-.825-3.082L1.515 17.6.363 14.609a2.106 2.106 0 0 1 .825-3.08l3.215-1.561-.254-3.564a2.111 2.111 0 0 1 2.256-2.256l3.28-.506 1.846-2.452a2.107 2.107 0 0 1 3.081-.826l2.959 2.005 2.96-2.005a2.104 2.104 0 0 1 1.727-.29 2.108 2.108 0 0 1 1.354 1.116l1.864 2.327 3.262.631c.048-.004.1-.004.149-.004a2.109 2.109 0 0 1 2.105 2.26l-.26 3.565 3.221 1.561c.551.267.957.761 1.113 1.351.16.591.054 1.222-.289 1.729l-.926 2.908.926 3.011c.344.508.447 1.138.289 1.729a2.093 2.093 0 0 1-1.113 1.353l-3.221 1.56.26 3.567a2.123 2.123 0 0 1-.612 1.642 2.118 2.118 0 0 1-1.642.612l-3.22.526-1.908 2.435a2.093 2.093 0 0 1-1.899 1.184Zm-3.735-6.953c3 .166 8.875-1.292 9.558-9.695.219-2.695-.86-5.278-2.7-7.257-4.475-4.815-12.036-5.092-16.851-.614-.404.376-.298.69-.09.857.432.345 1.07-.331 1.833-.794 5.042-3.042 9.918-2.098 13.643 1.91a8.061 8.061 0 0 1 2.167 5.822 8.058 8.058 0 0 1-2.585 5.649 6.532 6.532 0 0 1-4.74 1.765 6.562 6.562 0 0 1-4.6-2.104 5.32 5.32 0 0 1-1.428-3.838 5.319 5.319 0 0 1 1.704-3.724 4.306 4.306 0 0 1 6.077.221c.62.664.949 1.548.914 2.456a3.4 3.4 0 0 1-1.09 2.383 2.682 2.682 0 0 1-1.931.719c-.719-.026-1.403-.313-1.874-.857-.924-1.066-.465-2.149.368-2.733.703-.493 1.235-.719 1.083-1.25-.152-.53-.743-.445-1.275-.294-1.156.33-2.044 1.237-2.375 2.425-.326 1.169-.052 2.37.733 3.214a4.662 4.662 0 0 0 3.266 1.495 4.63 4.63 0 0 0 3.365-1.253 5.374 5.374 0 0 0 1.727-3.774 5.386 5.386 0 0 0-1.447-3.891 6.309 6.309 0 0 0-8.903-.324c-1.438 1.337-2.208 3.157-2.341 5.116-.375 5.495 4.084 8.411 7.792 8.37Z"/></svg>
